<svg width="154" height="24" viewBox="0 0 154 24" fill="none" xmlns="http://www.w3.org/2000/svg">
<path d="M6.85547 0.285156L7.51172 2.11328C6.80078 2.37109 6.31641 2.82812 6.05859 3.48438C5.80078 4.13281 5.67188 4.88281 5.67188 5.73438V8.125C5.67188 8.91406 5.49609 9.62891 5.14453 10.2695C4.80078 10.9102 4.25391 11.4219 3.50391 11.8047C2.75391 12.1797 1.77344 12.3672 0.5625 12.3672V10.5859C1.30469 10.5859 1.83594 10.3633 2.15625 9.91797C2.48438 9.47266 2.64844 8.875 2.64844 8.125V5.73438C2.64844 4.91406 2.77344 4.14844 3.02344 3.4375C3.28125 2.71875 3.71484 2.08984 4.32422 1.55078C4.94141 1.00391 5.78516 0.582031 6.85547 0.285156ZM7.51172 21.4023L6.85547 23.2422C5.78516 22.9375 4.94141 22.5117 4.32422 21.9648C3.71484 21.4258 3.28125 20.7969 3.02344 20.0781C2.77344 19.3672 2.64844 18.6016 2.64844 17.7812V15.3906C2.64844 14.8906 2.57422 14.457 2.42578 14.0898C2.28516 13.7227 2.0625 13.4414 1.75781 13.2461C1.45312 13.043 1.05469 12.9414 0.5625 12.9414V11.1484C1.77344 11.1484 2.75391 11.3398 3.50391 11.7227C4.25391 12.0977 4.80078 12.6055 5.14453 13.2461C5.49609 13.8867 5.67188 14.6016 5.67188 15.3906V17.7812C5.67188 18.3516 5.72656 18.8789 5.83594 19.3633C5.95312 19.8477 6.14062 20.2656 6.39844 20.6172C6.66406 20.9688 7.03516 21.2305 7.51172 21.4023ZM14.6719 12.7891V12.543C14.6719 11.6133 14.8047 10.7578 15.0703 9.97656C15.3359 9.1875 15.7227 8.50391 16.2305 7.92578C16.7383 7.34766 17.3633 6.89844 18.1055 6.57812C18.8477 6.25 19.6992 6.08594 20.6602 6.08594C21.6211 6.08594 22.4766 6.25 23.2266 6.57812C23.9766 6.89844 24.6055 7.34766 25.1133 7.92578C25.6289 8.50391 26.0195 9.1875 26.2852 9.97656C26.5508 10.7578 26.6836 11.6133 26.6836 12.543V12.7891C26.6836 13.7109 26.5508 14.5664 26.2852 15.3555C26.0195 16.1367 25.6289 16.8203 25.1133 17.4062C24.6055 17.9844 23.9805 18.4336 23.2383 18.7539C22.4961 19.0742 21.6445 19.2344 20.6836 19.2344C19.7227 19.2344 18.8672 19.0742 18.1172 18.7539C17.375 18.4336 16.7461 17.9844 16.2305 17.4062C15.7227 16.8203 15.3359 16.1367 15.0703 15.3555C14.8047 14.5664 14.6719 13.7109 14.6719 12.7891ZM18.0469 12.543V12.7891C18.0469 13.3203 18.0938 13.8164 18.1875 14.2773C18.2812 14.7383 18.4297 15.1445 18.6328 15.4961C18.8438 15.8398 19.1172 16.1094 19.4531 16.3047C19.7891 16.5 20.1992 16.5977 20.6836 16.5977C21.1523 16.5977 21.5547 16.5 21.8906 16.3047C22.2266 16.1094 22.4961 15.8398 22.6992 15.4961C22.9023 15.1445 23.0508 14.7383 23.1445 14.2773C23.2461 13.8164 23.2969 13.3203 23.2969 12.7891V12.543C23.2969 12.0273 23.2461 11.543 23.1445 11.0898C23.0508 10.6289 22.8984 10.2227 22.6875 9.87109C22.4844 9.51172 22.2148 9.23047 21.8789 9.02734C21.543 8.82422 21.1367 8.72266 20.6602 8.72266C20.1836 8.72266 19.7773 8.82422 19.4414 9.02734C19.1133 9.23047 18.8438 9.51172 18.6328 9.87109C18.4297 10.2227 18.2812 10.6289 18.1875 11.0898C18.0938 11.543 18.0469 12.0273 18.0469 12.543ZM32.1328 9.08594V19H28.7578V6.32031H31.9336L32.1328 9.08594ZM35.9531 6.23828L35.8945 9.36719C35.7305 9.34375 35.5312 9.32422 35.2969 9.30859C35.0703 9.28516 34.8633 9.27344 34.6758 9.27344C34.1992 9.27344 33.7852 9.33594 33.4336 9.46094C33.0898 9.57812 32.8008 9.75391 32.5664 9.98828C32.3398 10.2227 32.168 10.5078 32.0508 10.8438C31.9414 11.1797 31.8789 11.5625 31.8633 11.9922L31.1836 11.7812C31.1836 10.9609 31.2656 10.207 31.4297 9.51953C31.5938 8.82422 31.832 8.21875 32.1445 7.70312C32.4648 7.1875 32.8555 6.78906 33.3164 6.50781C33.7773 6.22656 34.3047 6.08594 34.8984 6.08594C35.0859 6.08594 35.2773 6.10156 35.4727 6.13281C35.668 6.15625 35.8281 6.19141 35.9531 6.23828ZM45.3398 6.32031H48.3984V18.5781C48.3984 19.7344 48.1406 20.7148 47.625 21.5195C47.1172 22.332 46.4062 22.9453 45.4922 23.3594C44.5781 23.7812 43.5156 23.9922 42.3047 23.9922C41.7734 23.9922 41.2109 23.9219 40.6172 23.7812C40.0312 23.6406 39.4688 23.4219 38.9297 23.125C38.3984 22.8281 37.9531 22.4531 37.5938 22L39.082 20.0078C39.4727 20.4609 39.9258 20.8125 40.4414 21.0625C40.957 21.3203 41.5273 21.4492 42.1523 21.4492C42.7617 21.4492 43.2773 21.3359 43.6992 21.1094C44.1211 20.8906 44.4453 20.5664 44.6719 20.1367C44.8984 19.7148 45.0117 19.2031 45.0117 18.6016V9.25L45.3398 6.32031ZM36.8086 12.8125V12.5664C36.8086 11.5977 36.9258 10.7188 37.1602 9.92969C37.4023 9.13281 37.7422 8.44922 38.1797 7.87891C38.625 7.30859 39.1641 6.86719 39.7969 6.55469C40.4297 6.24219 41.1445 6.08594 41.9414 6.08594C42.7852 6.08594 43.4922 6.24219 44.0625 6.55469C44.6328 6.86719 45.1016 7.3125 45.4688 7.89062C45.8359 8.46094 46.1211 9.13672 46.3242 9.91797C46.5352 10.6914 46.6992 11.5391 46.8164 12.4609V13C46.6992 13.8828 46.5234 14.7031 46.2891 15.4609C46.0547 16.2188 45.7461 16.8828 45.3633 17.4531C44.9805 18.0156 44.5039 18.4531 43.9336 18.7656C43.3711 19.0781 42.6992 19.2344 41.918 19.2344C41.1367 19.2344 40.4297 19.0742 39.7969 18.7539C39.1719 18.4336 38.6367 17.9844 38.1914 17.4062C37.7461 16.8281 37.4023 16.1484 37.1602 15.3672C36.9258 14.5859 36.8086 13.7344 36.8086 12.8125ZM40.1836 12.5664V12.8125C40.1836 13.3359 40.2344 13.8242 40.3359 14.2773C40.4375 14.7305 40.5938 15.1328 40.8047 15.4844C41.0234 15.8281 41.293 16.0977 41.6133 16.293C41.9414 16.4805 42.3281 16.5742 42.7734 16.5742C43.3906 16.5742 43.8945 16.4453 44.2852 16.1875C44.6758 15.9219 44.9688 15.5586 45.1641 15.0977C45.3594 14.6367 45.4727 14.1055 45.5039 13.5039V11.9688C45.4883 11.4766 45.4219 11.0352 45.3047 10.6445C45.1875 10.2461 45.0234 9.90625 44.8125 9.625C44.6016 9.34375 44.3281 9.125 43.9922 8.96875C43.6562 8.8125 43.2578 8.73438 42.7969 8.73438C42.3516 8.73438 41.9648 8.83594 41.6367 9.03906C41.3164 9.23438 41.0469 9.50391 40.8281 9.84766C40.6172 10.1914 40.457 10.5977 40.3477 11.0664C40.2383 11.5273 40.1836 12.0273 40.1836 12.5664ZM57.8672 16.1406V10.4922C57.8672 10.0859 57.8008 9.73828 57.668 9.44922C57.5352 9.15234 57.3281 8.92188 57.0469 8.75781C56.7734 8.59375 56.418 8.51172 55.9805 8.51172C55.6055 8.51172 55.2812 8.57812 55.0078 8.71094C54.7344 8.83594 54.5234 9.01953 54.375 9.26172C54.2266 9.49609 54.1523 9.77344 54.1523 10.0938H50.7773C50.7773 9.55469 50.9023 9.04297 51.1523 8.55859C51.4023 8.07422 51.7656 7.64844 52.2422 7.28125C52.7188 6.90625 53.2852 6.61328 53.9414 6.40234C54.6055 6.19141 55.3477 6.08594 56.168 6.08594C57.1523 6.08594 58.0273 6.25 58.793 6.57812C59.5586 6.90625 60.1602 7.39844 60.5977 8.05469C61.043 8.71094 61.2656 9.53125 61.2656 10.5156V15.9414C61.2656 16.6367 61.3086 17.207 61.3945 17.6523C61.4805 18.0898 61.6055 18.4727 61.7695 18.8008V19H58.3594C58.1953 18.6562 58.0703 18.2266 57.9844 17.7109C57.9062 17.1875 57.8672 16.6641 57.8672 16.1406ZM58.3125 11.2773L58.3359 13.1875H56.4492C56.0039 13.1875 55.6172 13.2383 55.2891 13.3398C54.9609 13.4414 54.6914 13.5859 54.4805 13.7734C54.2695 13.9531 54.1133 14.1641 54.0117 14.4062C53.918 14.6484 53.8711 14.9141 53.8711 15.2031C53.8711 15.4922 53.9375 15.7539 54.0703 15.9883C54.2031 16.2148 54.3945 16.3945 54.6445 16.5273C54.8945 16.6523 55.1875 16.7148 55.5234 16.7148C56.0312 16.7148 56.4727 16.6133 56.8477 16.4102C57.2227 16.207 57.5117 15.957 57.7148 15.6602C57.9258 15.3633 58.0352 15.082 58.043 14.8164L58.9336 16.2461C58.8086 16.5664 58.6367 16.8984 58.418 17.2422C58.207 17.5859 57.9375 17.9102 57.6094 18.2148C57.2812 18.5117 56.8867 18.7578 56.4258 18.9531C55.9648 19.1406 55.418 19.2344 54.7852 19.2344C53.9805 19.2344 53.25 19.0742 52.5938 18.7539C51.9453 18.4258 51.4297 17.9766 51.0469 17.4062C50.6719 16.8281 50.4844 16.1719 50.4844 15.4375C50.4844 14.7734 50.6094 14.1836 50.8594 13.668C51.1094 13.1523 51.4766 12.7188 51.9609 12.3672C52.4531 12.0078 53.0664 11.7383 53.8008 11.5586C54.5352 11.3711 55.3867 11.2773 56.3555 11.2773H58.3125ZM67.1719 9.02734V19H63.7969V6.32031H66.9609L67.1719 9.02734ZM66.6797 12.2148H65.7656C65.7656 11.2773 65.8867 10.4336 66.1289 9.68359C66.3711 8.92578 66.7109 8.28125 67.1484 7.75C67.5859 7.21094 68.1055 6.80078 68.707 6.51953C69.3164 6.23047 69.9961 6.08594 70.7461 6.08594C71.3398 6.08594 71.8828 6.17187 72.375 6.34375C72.8672 6.51563 73.2891 6.78906 73.6406 7.16406C74 7.53906 74.2734 8.03516 74.4609 8.65234C74.6562 9.26953 74.7539 10.0234 74.7539 10.9141V19H71.3555V10.9023C71.3555 10.3398 71.2773 9.90234 71.1211 9.58984C70.9648 9.27734 70.7344 9.05859 70.4297 8.93359C70.1328 8.80078 69.7656 8.73438 69.3281 8.73438C68.875 8.73438 68.4805 8.82422 68.1445 9.00391C67.8164 9.18359 67.543 9.43359 67.3242 9.75391C67.1133 10.0664 66.9531 10.4336 66.8438 10.8555C66.7344 11.2773 66.6797 11.7305 66.6797 12.2148ZM80.8828 6.32031V19H77.4961V6.32031H80.8828ZM77.2852 3.01562C77.2852 2.52344 77.457 2.11719 77.8008 1.79688C78.1445 1.47656 78.6055 1.31641 79.1836 1.31641C79.7539 1.31641 80.2109 1.47656 80.5547 1.79688C80.9062 2.11719 81.082 2.52344 81.082 3.01562C81.082 3.50781 80.9062 3.91406 80.5547 4.23438C80.2109 4.55469 79.7539 4.71484 79.1836 4.71484C78.6055 4.71484 78.1445 4.55469 77.8008 4.23438C77.457 3.91406 77.2852 3.50781 77.2852 3.01562ZM93.7617 16.3633V19H84.1289V16.3633H93.7617ZM93.5742 8.26562L85.4883 19H83.2266V16.9961L91.2773 6.32031H93.5742V8.26562ZM92.3789 6.32031V8.96875H83.4141V6.32031H92.3789ZM102.727 16.1406V10.4922C102.727 10.0859 102.66 9.73828 102.527 9.44922C102.395 9.15234 102.188 8.92188 101.906 8.75781C101.633 8.59375 101.277 8.51172 100.84 8.51172C100.465 8.51172 100.141 8.57812 99.8672 8.71094C99.5938 8.83594 99.3828 9.01953 99.2344 9.26172C99.0859 9.49609 99.0117 9.77344 99.0117 10.0938H95.6367C95.6367 9.55469 95.7617 9.04297 96.0117 8.55859C96.2617 8.07422 96.625 7.64844 97.1016 7.28125C97.5781 6.90625 98.1445 6.61328 98.8008 6.40234C99.4648 6.19141 100.207 6.08594 101.027 6.08594C102.012 6.08594 102.887 6.25 103.652 6.57812C104.418 6.90625 105.02 7.39844 105.457 8.05469C105.902 8.71094 106.125 9.53125 106.125 10.5156V15.9414C106.125 16.6367 106.168 17.207 106.254 17.6523C106.34 18.0898 106.465 18.4727 106.629 18.8008V19H103.219C103.055 18.6562 102.93 18.2266 102.844 17.7109C102.766 17.1875 102.727 16.6641 102.727 16.1406ZM103.172 11.2773L103.195 13.1875H101.309C100.863 13.1875 100.477 13.2383 100.148 13.3398C99.8203 13.4414 99.5508 13.5859 99.3398 13.7734C99.1289 13.9531 98.9727 14.1641 98.8711 14.4062C98.7773 14.6484 98.7305 14.9141 98.7305 15.2031C98.7305 15.4922 98.7969 15.7539 98.9297 15.9883C99.0625 16.2148 99.2539 16.3945 99.5039 16.5273C99.7539 16.6523 100.047 16.7148 100.383 16.7148C100.891 16.7148 101.332 16.6133 101.707 16.4102C102.082 16.207 102.371 15.957 102.574 15.6602C102.785 15.3633 102.895 15.082 102.902 14.8164L103.793 16.2461C103.668 16.5664 103.496 16.8984 103.277 17.2422C103.066 17.5859 102.797 17.9102 102.469 18.2148C102.141 18.5117 101.746 18.7578 101.285 18.9531C100.824 19.1406 100.277 19.2344 99.6445 19.2344C98.8398 19.2344 98.1094 19.0742 97.4531 18.7539C96.8047 18.4258 96.2891 17.9766 95.9062 17.4062C95.5312 16.8281 95.3438 16.1719 95.3438 15.4375C95.3438 14.7734 95.4688 14.1836 95.7188 13.668C95.9688 13.1523 96.3359 12.7188 96.8203 12.3672C97.3125 12.0078 97.9258 11.7383 98.6602 11.5586C99.3945 11.3711 100.246 11.2773 101.215 11.2773H103.172ZM108.727 1H112.102V16.0938L111.762 19H108.727V1ZM120.129 12.5312V12.7773C120.129 13.7227 120.027 14.5898 119.824 15.3789C119.629 16.168 119.324 16.8516 118.91 17.4297C118.496 18 117.98 18.4453 117.363 18.7656C116.754 19.0781 116.035 19.2344 115.207 19.2344C114.434 19.2344 113.762 19.0781 113.191 18.7656C112.629 18.4531 112.156 18.0117 111.773 17.4414C111.391 16.8711 111.082 16.2031 110.848 15.4375C110.613 14.6719 110.438 13.8359 110.32 12.9297V12.3906C110.438 11.4844 110.613 10.6484 110.848 9.88281C111.082 9.11719 111.391 8.44922 111.773 7.87891C112.156 7.30859 112.629 6.86719 113.191 6.55469C113.754 6.24219 114.418 6.08594 115.184 6.08594C116.02 6.08594 116.746 6.24609 117.363 6.56641C117.988 6.87891 118.504 7.32422 118.91 7.90234C119.324 8.47266 119.629 9.15234 119.824 9.94141C120.027 10.7227 120.129 11.5859 120.129 12.5312ZM116.754 12.7773V12.5312C116.754 12.0156 116.715 11.5312 116.637 11.0781C116.566 10.6172 116.441 10.2148 116.262 9.87109C116.082 9.51953 115.836 9.24219 115.523 9.03906C115.219 8.83594 114.824 8.73438 114.34 8.73438C113.879 8.73438 113.488 8.8125 113.168 8.96875C112.848 9.125 112.582 9.34375 112.371 9.625C112.168 9.90625 112.016 10.2422 111.914 10.6328C111.812 11.0156 111.75 11.4375 111.727 11.8984V13.4336C111.75 14.0508 111.852 14.5977 112.031 15.0742C112.219 15.543 112.5 15.9141 112.875 16.1875C113.258 16.4531 113.754 16.5859 114.363 16.5859C114.84 16.5859 115.234 16.4922 115.547 16.3047C115.859 16.1172 116.102 15.8516 116.273 15.5078C116.453 15.1641 116.578 14.7617 116.648 14.3008C116.719 13.832 116.754 13.3242 116.754 12.7773ZM125.789 1V19H122.402V1H125.789ZM134.414 19.2344C133.43 19.2344 132.547 19.0781 131.766 18.7656C130.984 18.4453 130.32 18.0039 129.773 17.4414C129.234 16.8789 128.82 16.2266 128.531 15.4844C128.242 14.7344 128.098 13.9375 128.098 13.0938V12.625C128.098 11.6641 128.234 10.7852 128.508 9.98828C128.781 9.19141 129.172 8.5 129.68 7.91406C130.195 7.32812 130.82 6.87891 131.555 6.56641C132.289 6.24609 133.117 6.08594 134.039 6.08594C134.938 6.08594 135.734 6.23438 136.43 6.53125C137.125 6.82812 137.707 7.25 138.176 7.79688C138.652 8.34375 139.012 9 139.254 9.76562C139.496 10.5234 139.617 11.3672 139.617 12.2969V13.7031H129.539V11.4531H136.301V11.1953C136.301 10.7266 136.215 10.3086 136.043 9.94141C135.879 9.56641 135.629 9.26953 135.293 9.05078C134.957 8.83203 134.527 8.72266 134.004 8.72266C133.559 8.72266 133.176 8.82031 132.855 9.01562C132.535 9.21094 132.273 9.48438 132.07 9.83594C131.875 10.1875 131.727 10.6016 131.625 11.0781C131.531 11.5469 131.484 12.0625 131.484 12.625V13.0938C131.484 13.6016 131.555 14.0703 131.695 14.5C131.844 14.9297 132.051 15.3008 132.316 15.6133C132.59 15.9258 132.918 16.168 133.301 16.3398C133.691 16.5117 134.133 16.5977 134.625 16.5977C135.234 16.5977 135.801 16.4805 136.324 16.2461C136.855 16.0039 137.312 15.6406 137.695 15.1562L139.336 16.9375C139.07 17.3203 138.707 17.6875 138.246 18.0391C137.793 18.3906 137.246 18.6797 136.605 18.9062C135.965 19.125 135.234 19.2344 134.414 19.2344ZM146.602 2.11328L147.258 0.285156C148.336 0.582031 149.18 1.00391 149.789 1.55078C150.398 2.08984 150.828 2.71875 151.078 3.4375C151.336 4.14844 151.465 4.91406 151.465 5.73438V8.125C151.465 8.625 151.535 9.05859 151.676 9.42578C151.816 9.79297 152.039 10.0781 152.344 10.2812C152.656 10.4844 153.059 10.5859 153.551 10.5859V12.3203C152.34 12.3203 151.359 12.1367 150.609 11.7695C149.859 11.4023 149.309 10.9023 148.957 10.2695C148.605 9.62891 148.43 8.91406 148.43 8.125V5.73438C148.43 5.16406 148.375 4.63672 148.266 4.15234C148.164 3.66797 147.98 3.25 147.715 2.89844C147.449 2.54688 147.078 2.28516 146.602 2.11328ZM147.258 23.2422L146.602 21.4023C147.078 21.2305 147.449 20.9688 147.715 20.6172C147.98 20.2656 148.164 19.8477 148.266 19.3633C148.375 18.8789 148.43 18.3516 148.43 17.7812V15.3906C148.43 14.6016 148.605 13.8906 148.957 13.2578C149.309 12.625 149.859 12.125 150.609 11.7578C151.359 11.3828 152.34 11.1953 153.551 11.1953V12.9414C152.816 12.9414 152.285 13.1641 151.957 13.6094C151.629 14.0547 151.465 14.6484 151.465 15.3906V17.7812C151.465 18.6016 151.336 19.3672 151.078 20.0781C150.828 20.7969 150.398 21.4258 149.789 21.9648C149.18 22.5117 148.336 22.9375 147.258 23.2422Z" fill="#303036"/>
</svg>
